<svg viewBox="0 0 100 100" fill="none" xmlns="http://www.w3.org/2000/svg">
  <defs>
    <mask id="circle-mask">
      <circle cx="50" cy="50" r="48" fill="#FFFFFF" />
    </mask>
  </defs>

  <!-- Masked group to force everything to be a perfect circle -->
  <g mask="url(#circle-mask)">
    <!-- Sky Background (Orange) -->
    <rect x="0" y="0" width="100" height="100" fill="#F48B20" />
    
    <!-- Green Field (slanted, starting around y=31 on left up to y=15 on right) -->
    <path d="M-5 105 L105 105 L105 16 L-5 31 Z" fill="#5FA354" />
    
    <!-- Center Utility Pole (White, rounded tip in orange sky) -->
    <rect x="47.5" y="15" width="5" height="85" rx="2.5" fill="#FFFFFF" />
    
    <!-- 3 Slanted Metallic Distribution Lines (White) -->
    <line x1="-5" y1="31" x2="105" y2="17" stroke="#FFFFFF" strokeWidth="2" />
    <line x1="-5" y1="48" x2="105" y2="34" stroke="#FFFFFF" strokeWidth="2" />
    <line x1="-5" y1="65" x2="105" y2="51" stroke="#FFFFFF" strokeWidth="2" />

    <!-- Insulator Assembly 1 (Top Line, Right of Pole) -->
    <path d="M52.5 28.5 L58 28.5" stroke="#FFFFFF" strokeWidth="1.5" strokeLinecap="round" />
    <g transform="translate(58, 25.5)">
      <path d="M-3 h6 v-1.5 h-6 z" fill="#FFFFFF" />
      <path d="M-4.5 -3.5 h9 v-1.5 h-9 z" fill="#FFFFFF" />
      <path d="M-3.5 -5.5 h7 v-1.5 h-7 z" fill="#FFFFFF" />
      <path d="M-1.5 -7 h3 v-1 h-3 z" fill="#FFFFFF" />
    </g>

    <!-- Insulator Assembly 2 (Middle Line, Left of Pole) -->
    <path d="M47.5 44 C42 44, 42 45, 42 47" stroke="#FFFFFF" strokeWidth="1.5" strokeLinecap="round" fill="none" />
    <g transform="translate(42, 47)">
      <path d="M-3 0 h6 v1.5 h-6 z" fill="#FFFFFF" />
      <path d="M-4.5 2 h9 v1.5 h-9 z" fill="#FFFFFF" />
      <path d="M-3.5 4 h7 v1.5 h-7 z" fill="#FFFFFF" />
      <path d="M-1.5 6.2 h3 v1 h-3 z" fill="#FFFFFF" />
    </g>

    <!-- Insulator Assembly 3 (Bottom Line, Right of Pole) -->
    <path d="M52.5 61 C58 61, 58 62, 58 64" stroke="#FFFFFF" strokeWidth="1.5" strokeLinecap="round" fill="none" />
    <g transform="translate(58, 64)">
      <path d="M-3 0 h6 v1.5 h-6 z" fill="#FFFFFF" />
      <path d="M-4.5 2 h9 v1.5 h-9 z" fill="#FFFFFF" />
      <path d="M-3.5 4 h7 v1.5 h-7 z" fill="#FFFFFF" />
      <path d="M-1.5 6.2 h3 v1 h-3 z" fill="#FFFFFF" />
    </g>
  </g>
</svg>
